<?xml version="1.0" standalone="no"?>
<!DOCTYPE svg PUBLIC "-//W3C//DTD SVG 20010904//EN"
 "http://www.w3.org/TR/2001/REC-SVG-20010904/DTD/svg10.dtd">
<svg version="1.0" xmlns="http://www.w3.org/2000/svg"
 width="256.000000pt" height="256.000000pt" viewBox="0 0 256.000000 256.000000"
 preserveAspectRatio="xMidYMid meet">
<metadata>
Created by potrace 1.15, written by Peter Selinger 2001-2017
</metadata>
<g transform="translate(0.000000,256.000000) scale(0.100000,-0.100000)"
fill="#1565c0" stroke="none">
<path d="M759 1846 c-149 -53 -258 -164 -309 -316 -31 -93 -26 -267 11 -356
l25 -60 -20 -27 c-15 -20 -20 -43 -21 -85 0 -72 25 -125 78 -163 33 -24 50
-29 95 -29 50 0 57 3 95 40 l40 41 51 -11 c35 -8 207 -10 536 -8 480 3 486 3
540 26 124 51 236 166 282 287 20 51 23 79 23 185 0 106 -3 134 -23 185 -46
121 -158 236 -282 287 -55 23 -58 23 -555 25 l-500 3 -66 -24z m221 -361 c36
-19 60 -62 60 -110 0 -99 -100 -156 -190 -110 -78 41 -80 177 -2 219 35 20 95
20 132 1z m400 0 c79 -41 79 -179 0 -220 -37 -19 -93 -19 -130 0 -78 41 -80
177 -2 219 35 20 95 20 132 1z m400 0 c79 -41 79 -179 0 -220 -37 -19 -93 -19
-130 0 -78 41 -80 177 -2 219 35 20 95 20 132 1z"/>
<path d="M390 820 c-12 -12 -20 -33 -20 -55 0 -46 29 -75 75 -75 46 0 75 29
75 75 0 22 -8 43 -20 55 -12 12 -33 20 -55 20 -22 0 -43 -8 -55 -20z"/>
</g>
</svg>
